<svg width="282" height="189" viewBox="0 0 282 189" fill="none" xmlns="http://www.w3.org/2000/svg">
<rect x="12" y="12" width="113" height="4" fill="white" fill-opacity="0.1"/>
<rect x="12" y="20" width="258" height="4" fill="white" fill-opacity="0.1"/>
<rect x="12" y="28" width="106" height="4" fill="white" fill-opacity="0.1"/>
<rect x="4" y="44" width="274" height="4" fill="white" fill-opacity="0.1"/>
<path fill-rule="evenodd" clip-rule="evenodd" d="M50.6905 142.934C60.7952 130.925 70.2795 121.345 81.7629 119.373C93.043 117.435 107.083 122.768 126.519 142.991C127.487 144.118 128.712 145.41 130.157 146.778C130.267 147.039 130.434 147.281 130.658 147.483C130.872 147.676 131.116 147.815 131.373 147.9C134.18 150.424 137.663 153.118 141.599 155.472C148.328 159.495 156.58 162.637 165.15 161.994C166.251 161.912 167.077 160.952 166.994 159.85C166.912 158.749 165.952 157.923 164.85 158.006C157.42 158.563 150.005 155.837 143.651 152.038C140.382 150.084 137.446 147.876 134.998 145.763C139.841 140.977 147.932 135.219 157.452 132.353C167.961 129.188 180.133 129.553 191.774 138.58C191.812 138.61 191.851 138.638 191.891 138.664C195.352 140.972 202.169 144.166 210.394 146.781C218.642 149.403 228.48 151.5 238 151.5C246.893 151.5 252.229 153.653 255.85 156.199C257.684 157.488 259.136 158.919 260.427 160.338C260.878 160.834 261.343 161.368 261.808 161.903L261.808 161.903C262.586 162.798 263.365 163.694 264.086 164.414C264.867 165.195 266.133 165.195 266.914 164.414C267.695 163.633 267.695 162.367 266.914 161.586C266.266 160.938 265.67 160.25 264.987 159.461L264.986 159.46C264.511 158.911 263.993 158.313 263.385 157.646C261.989 156.112 260.316 154.449 258.15 152.926C253.771 149.847 247.607 147.5 238 147.5C229.02 147.5 219.608 145.513 211.606 142.969C203.631 140.433 197.228 137.4 194.167 135.374C181.326 125.446 167.772 125.067 156.298 128.522C145.982 131.629 137.285 137.84 132.054 143.049C131.065 142.072 130.214 141.157 129.519 140.346C129.507 140.331 129.495 140.317 129.482 140.304C129.469 140.289 129.456 140.275 129.442 140.261C109.73 119.737 94.404 113.142 81.0856 115.43C67.9629 117.685 57.6117 128.496 47.6298 140.359C31.766 159.212 16.7358 165.993 11.6004 167.04C10.5181 167.261 9.81964 168.317 10.0403 169.4C10.261 170.482 11.3173 171.18 12.3996 170.96C18.6466 169.686 34.4158 162.276 50.6905 142.934Z" fill="white" fill-opacity="0.1"/>
<circle cx="236" cy="105" r="9" stroke="white" stroke-opacity="0.1" stroke-width="4"/>
<rect x="2" y="2" width="278" height="185" rx="10" stroke="white" stroke-opacity="0.1" stroke-width="4"/>
</svg>
