<svg width="24" height="18" viewBox="0 0 24 18" fill="none" xmlns="http://www.w3.org/2000/svg">
<path d="M16.8939 14.638L15.3411 13.0852C17.6995 10.7268 17.6995 6.90311 15.3411 4.54473L16.8939 2.99192C20.1099 6.2079 20.1099 11.422 16.8939 14.638Z" fill="black" fill-opacity="0.6"/>
<path d="M20.4624 17.0809L18.9096 15.5281C22.7688 11.6689 22.7688 5.41198 18.9096 1.55281L20.4624 0C25.1792 4.71677 25.1792 12.3642 20.4624 17.0809Z" fill="black" fill-opacity="0.6"/>
<path d="M7.10608 2.44292L8.65889 3.99573C6.30051 6.35411 6.30051 10.1778 8.65889 12.5362L7.10608 14.089C3.89011 10.873 3.89011 5.65889 7.10608 2.44292Z" fill="black" fill-opacity="0.6"/>
<path d="M3.53757 0L5.09038 1.55281C1.23121 5.41198 1.23121 11.6689 5.09038 15.5281L3.53757 17.0809C-1.17919 12.3642 -1.17919 4.71677 3.53757 0Z" fill="black" fill-opacity="0.6"/>
<path fill-rule="evenodd" clip-rule="evenodd" d="M12 10.7365C13.2128 10.7365 14.196 9.75331 14.196 8.54049C14.196 7.32766 13.2128 6.34448 12 6.34448C10.7872 6.34448 9.80402 7.32766 9.80402 8.54049C9.80402 9.75331 10.7872 10.7365 12 10.7365Z" fill="black" fill-opacity="0.6"/>
</svg>
