<svg width="33" height="23" viewBox="0 0 33 23" fill="none" xmlns="http://www.w3.org/2000/svg">
<g clip-path="url(#clip0)">
<path d="M4.8769 7.52806L5.83333 8.4845C4.38072 9.93711 4.38072 12.2923 5.83333 13.7449L4.8769 14.7013C2.89606 12.7205 2.89606 9.5089 4.8769 7.52806Z" fill="black" fill-opacity="0.6"/>
<path d="M2.67892 6.02338L3.63536 6.97981C1.25835 9.35682 1.25835 13.2107 3.63536 15.5877L2.67892 16.5442C-0.226308 13.6389 -0.226308 8.92861 2.67892 6.02338Z" fill="black" fill-opacity="0.6"/>
<path d="M22.7369 0.333332H10.2631C9.79549 0.333332 9.34704 0.519085 9.0164 0.849728C8.68575 1.18037 8.5 1.62882 8.5 2.09642V10.4711C8.5 10.9387 8.68575 11.3871 9.0164 11.7178C9.34704 12.0484 9.79549 12.2342 10.2631 12.2342H22.7369C23.2045 12.2342 23.653 12.0484 23.9836 11.7178C24.3142 11.3871 24.5 10.9387 24.5 10.4711V2.09642C24.5 1.62882 24.3142 1.18037 23.9836 0.849728C23.653 0.519085 23.2045 0.333332 22.7369 0.333332ZM9.82231 2.09642C9.82231 1.97952 9.86875 1.86741 9.95141 1.78474C10.0341 1.70208 10.1462 1.65565 10.2631 1.65565H22.7369C22.8538 1.65565 22.9659 1.70208 23.0486 1.78474C23.1312 1.86741 23.1777 1.97952 23.1777 2.09642V7.87052L19.8939 4.98347C19.8291 4.92308 19.7527 4.87636 19.6694 4.84607C19.5861 4.81578 19.4976 4.80255 19.4091 4.80716C19.2301 4.82785 19.0652 4.91424 18.9463 5.04959L17.2273 7.18733L14.6488 5.57851C14.5078 5.49387 14.3411 5.46288 14.1792 5.49121C14.0173 5.51955 13.871 5.60532 13.7672 5.73278L9.97658 10.8017C9.92483 10.7643 9.8835 10.7143 9.8565 10.6564C9.8295 10.5985 9.81773 10.5348 9.82231 10.4711V2.09642ZM16.3898 8.22314L14.208 10.9118H11.5413L14.4504 7.01102L16.3898 8.22314ZM22.7369 10.9118H15.905L19.5413 6.41598L23.1777 9.65565V10.4711C23.1777 10.588 23.1312 10.7001 23.0486 10.7827C22.9659 10.8654 22.8538 10.9118 22.7369 10.9118Z" fill="black" fill-opacity="0.6"/>
<path fill-rule="evenodd" clip-rule="evenodd" d="M13.4184 16.1348H11.6636V22.2342H10.2256V16.1348H8.5V14.9008H13.4184V16.1348ZM16.5024 17.4191L17.4578 14.9008H19.1005L17.4334 18.5373L19.1395 22.2342H17.4773L16.5024 19.6705L15.5323 22.2342H13.8701L15.5762 18.5373L13.9042 14.9008H15.547L16.5024 17.4191ZM24.5 16.1348H22.7451V22.2342H21.3071V16.1348H19.5815V14.9008H24.5V16.1348Z" fill="black" fill-opacity="0.6"/>
<path d="M28.1224 15.0395L27.166 14.083C28.6186 12.6304 28.6186 10.2753 27.166 8.82265L28.1224 7.86621C30.1033 9.84705 30.1033 13.0586 28.1224 15.0395Z" fill="black" fill-opacity="0.6"/>
<path d="M30.3204 16.5442L29.364 15.5877C31.741 13.2107 31.741 9.35682 29.364 6.97981L30.3204 6.02338C33.2257 8.92861 33.2257 13.6389 30.3204 16.5442Z" fill="black" fill-opacity="0.6"/>
</g>
<defs>
<clipPath id="clip0">
<rect x="0.5" y="0.333332" width="32" height="21.9008" fill="white"/>
</clipPath>
</defs>
</svg>
