<svg width="32" height="13" viewBox="0 0 32 13" fill="none" xmlns="http://www.w3.org/2000/svg">
<g clip-path="url(#clip0)">
<path d="M4.3769 2.86146L5.33333 3.81789C3.88072 5.2705 3.88072 7.62566 5.33333 9.07827L4.3769 10.0347C2.39606 8.05387 2.39606 4.8423 4.3769 2.86146Z" fill="black" fill-opacity="0.6"/>
<path d="M2.17892 1.35677L3.13536 2.31321C0.75835 4.69021 0.75835 8.5441 3.13536 10.9211L2.17892 11.8775C-0.726308 8.97231 -0.726308 4.262 2.17892 1.35677Z" fill="black" fill-opacity="0.6"/>
<path d="M22.2369 0.666668H9.76309C9.29549 0.666668 8.84704 0.852421 8.5164 1.18306C8.18575 1.51371 8 1.96215 8 2.42975V10.8044C8 11.272 8.18575 11.7205 8.5164 12.0511C8.84704 12.3817 9.29549 12.5675 9.76309 12.5675H22.2369C22.7045 12.5675 23.153 12.3817 23.4836 12.0511C23.8142 11.7205 24 11.272 24 10.8044V2.42975C24 1.96215 23.8142 1.51371 23.4836 1.18306C23.153 0.852421 22.7045 0.666668 22.2369 0.666668ZM9.32231 2.42975C9.32231 2.31285 9.36875 2.20074 9.45141 2.11808C9.53407 2.03542 9.64619 1.98898 9.76309 1.98898H22.2369C22.3538 1.98898 22.4659 2.03542 22.5486 2.11808C22.6312 2.20074 22.6777 2.31285 22.6777 2.42975V8.20386L19.3939 5.3168C19.3291 5.25642 19.2527 5.2097 19.1694 5.17941C19.0861 5.14912 18.9976 5.13589 18.9091 5.1405C18.7301 5.16119 18.5652 5.24758 18.4463 5.38292L16.7273 7.52066L14.1488 5.91185C14.0078 5.82721 13.8411 5.79621 13.6792 5.82455C13.5173 5.85288 13.371 5.93865 13.2672 6.06612L9.47658 11.135C9.42483 11.0976 9.3835 11.0476 9.3565 10.9897C9.3295 10.9319 9.31773 10.8681 9.32231 10.8044V2.42975ZM15.8898 8.55647L13.708 11.2452H11.0413L13.9504 7.34435L15.8898 8.55647ZM22.2369 11.2452H15.405L19.0413 6.74931L22.6777 9.98898V10.8044C22.6777 10.9213 22.6312 11.0334 22.5486 11.1161C22.4659 11.1987 22.3538 11.2452 22.2369 11.2452Z" fill="black" fill-opacity="0.6"/>
<path d="M27.6224 10.3728L26.666 9.41637C28.1186 7.96375 28.1186 5.6086 26.666 4.15598L27.6224 3.19955C29.6033 5.18039 29.6033 8.39196 27.6224 10.3728Z" fill="black" fill-opacity="0.6"/>
<path d="M29.8204 11.8775L28.864 10.9211C31.241 8.54404 31.241 4.69016 28.864 2.31315L29.8204 1.35672C32.7257 4.26195 32.7257 8.97225 29.8204 11.8775Z" fill="black" fill-opacity="0.6"/>
</g>
<defs>
<clipPath id="clip0">
<rect y="0.666668" width="32" height="11.9008" fill="white"/>
</clipPath>
</defs>
</svg>
