<svg width="32" height="32" viewBox="0 0 32 32" fill="none" xmlns="http://www.w3.org/2000/svg">
<path d="M22.2369 5.33333H9.76309C9.29549 5.33333 8.84704 5.51909 8.5164 5.84973C8.18575 6.18037 8 6.62882 8 7.09642V15.4711C8 15.9387 8.18575 16.3871 8.5164 16.7178C8.84704 17.0484 9.29549 17.2342 9.76309 17.2342H22.2369C22.7045 17.2342 23.153 17.0484 23.4836 16.7178C23.8142 16.3871 24 15.9387 24 15.4711V7.09642C24 6.62882 23.8142 6.18037 23.4836 5.84973C23.153 5.51909 22.7045 5.33333 22.2369 5.33333ZM9.32231 7.09642C9.32231 6.97952 9.36875 6.86741 9.45141 6.78474C9.53407 6.70208 9.64619 6.65565 9.76309 6.65565H22.2369C22.3538 6.65565 22.4659 6.70208 22.5486 6.78474C22.6312 6.86741 22.6777 6.97952 22.6777 7.09642V12.8705L19.3939 9.98347C19.3291 9.92308 19.2527 9.87636 19.1694 9.84607C19.0861 9.81578 18.9976 9.80255 18.9091 9.80716C18.7301 9.82785 18.5652 9.91424 18.4463 10.0496L16.7273 12.1873L14.1488 10.5785C14.0078 10.4939 13.8411 10.4629 13.6792 10.4912C13.5173 10.5195 13.371 10.6053 13.2672 10.7328L9.47658 15.8017C9.42483 15.7643 9.3835 15.7143 9.3565 15.6564C9.3295 15.5985 9.31773 15.5348 9.32231 15.4711V7.09642ZM15.8898 13.2231L13.708 15.9118H11.0413L13.9504 12.011L15.8898 13.2231ZM22.2369 15.9118H15.405L19.0413 11.416L22.6777 14.6556V15.4711C22.6777 15.588 22.6312 15.7001 22.5486 15.7827C22.4659 15.8654 22.3538 15.9118 22.2369 15.9118Z" fill="black" fill-opacity="0.6"/>
<path fill-rule="evenodd" clip-rule="evenodd" d="M12.9184 21.1349H11.1636V27.2342H9.72559V21.1349H8V19.9009H12.9184V21.1349ZM16.0024 22.4192L16.9578 19.9009H18.6005L16.9334 23.5373L18.6395 27.2342H16.9773L16.0024 24.6706L15.0323 27.2342H13.3701L15.0762 23.5373L13.4042 19.9009H15.047L16.0024 22.4192ZM24 21.1349H22.2451V27.2342H20.8071V21.1349H19.0815V19.9009H24V21.1349Z" fill="black" fill-opacity="0.6"/>
</svg>
