<svg width="32" height="12" viewBox="0 0 32 12" fill="none" xmlns="http://www.w3.org/2000/svg">
<g clip-path="url(#clip0)">
<path d="M4.3769 2.17135L5.33333 3.12778C3.88072 4.5804 3.88072 6.93555 5.33333 8.38817L4.3769 9.3446C2.39606 7.36376 2.39606 4.15219 4.3769 2.17135Z" fill="black" fill-opacity="0.6"/>
<path d="M2.17892 0.666664L3.13536 1.6231C0.75835 4.0001 0.75835 7.85399 3.13536 10.231L2.17892 11.1874C-0.726308 8.2822 -0.726308 3.57189 2.17892 0.666664Z" fill="black" fill-opacity="0.6"/>
<path fill-rule="evenodd" clip-rule="evenodd" d="M12.9184 3.49437H11.1636V9.59373H9.72559V3.49437H8V2.26039H12.9184V3.49437ZM16.0024 4.77871L16.9578 2.26039H18.6005L16.9334 5.89684L18.6395 9.59373H16.9773L16.0024 7.03008L15.0323 9.59373H13.3701L15.0762 5.89684L13.4042 2.26039H15.047L16.0024 4.77871ZM24 3.49437H22.2451V9.59373H20.8071V3.49437H19.0815V2.26039H24V3.49437Z" fill="black" fill-opacity="0.6"/>
<path d="M27.6224 9.68275L26.666 8.72632C28.1186 7.2737 28.1186 4.91855 26.666 3.46593L27.6224 2.5095C29.6033 4.49034 29.6033 7.70191 27.6224 9.68275Z" fill="black" fill-opacity="0.6"/>
<path d="M29.8204 11.1874L28.864 10.231C31.241 7.85399 31.241 4.0001 28.864 1.6231L29.8204 0.666664C32.7257 3.57189 32.7257 8.2822 29.8204 11.1874Z" fill="black" fill-opacity="0.6"/>
</g>
<defs>
<clipPath id="clip0">
<rect y="0.666664" width="32" height="10.5208" fill="white"/>
</clipPath>
</defs>
</svg>
