<svg width="25" height="18" viewBox="0 0 25 18" fill="none" xmlns="http://www.w3.org/2000/svg">
<path d="M21.8554 0H3.14463C2.44323 0 1.77056 0.27863 1.27459 0.774593C0.77863 1.27056 0.5 1.94323 0.5 2.64463V15.2066C0.5 15.908 0.77863 16.5807 1.27459 17.0766C1.77056 17.5726 2.44323 17.8512 3.14463 17.8512H21.8554C22.5568 17.8512 23.2294 17.5726 23.7254 17.0766C24.2214 16.5807 24.5 15.908 24.5 15.2066V2.64463C24.5 1.94323 24.2214 1.27056 23.7254 0.774593C23.2294 0.27863 22.5568 0 21.8554 0ZM2.48347 2.64463C2.48347 2.46928 2.55313 2.30111 2.67712 2.17712C2.80111 2.05313 2.96928 1.98347 3.14463 1.98347H21.8554C22.0307 1.98347 22.1989 2.05313 22.3229 2.17712C22.4469 2.30111 22.5165 2.46928 22.5165 2.64463V11.3058L17.5909 6.97521C17.4936 6.88463 17.3791 6.81454 17.2541 6.76911C17.1292 6.72368 16.9964 6.70383 16.8636 6.71074C16.5952 6.74178 16.3478 6.87136 16.1694 7.07438L13.5909 10.281L9.72314 7.86777C9.51176 7.74081 9.2617 7.69431 9.01882 7.73682C8.77594 7.77932 8.55652 7.90797 8.40083 8.09917L2.71488 15.7025C2.63725 15.6464 2.57524 15.5714 2.53474 15.4846C2.49425 15.3978 2.4766 15.3021 2.48347 15.2066V2.64463ZM12.3347 11.8347L9.06198 15.8678H5.06198L9.42562 10.0165L12.3347 11.8347ZM21.8554 15.8678H11.6074L17.062 9.12397L22.5165 13.9835V15.2066C22.5165 15.382 22.4469 15.5501 22.3229 15.6741C22.1989 15.7981 22.0307 15.8678 21.8554 15.8678Z" fill="black" fill-opacity="0.6"/>
</svg>
