<svg width="24" height="22" viewBox="0 0 24 22" fill="none" xmlns="http://www.w3.org/2000/svg">
<path fill-rule="evenodd" clip-rule="evenodd" d="M11.7177 0H22.7875C23.4558 0 24 0.544181 24 1.21249V19.9319C24 20.6002 23.4558 21.1444 22.7875 21.1444H11.7177C11.068 21.1444 10.5321 20.6292 10.5062 19.9805V1.16922C10.5321 0.520556 11.067 0.00534984 11.7177 0.00534984V0ZM4.87407 13.5133C4.17575 14.1557 5.15237 15.2172 5.85069 14.5747L8.95655 11.7162C9.26382 11.4338 9.26795 10.9362 8.95655 10.6548L5.85069 7.79629C5.15237 7.15383 4.17575 8.21528 4.87407 8.85775L6.61729 10.4623H0.71306C-0.237687 10.4623 -0.237687 11.9076 0.71306 11.9076H6.61729L4.87303 13.5122L4.87407 13.5133ZM15.5683 9.04293H16.907V12.1022H15.5683V9.04293ZM13.5333 1.44606L18.2283 3.94555C18.4714 4.07487 18.609 4.32317 18.609 4.58076C18.6121 8.57518 18.6121 12.5707 18.6121 16.5651C18.6121 16.8641 18.43 17.1206 18.1703 17.2303L13.5323 19.6987H22.5528V1.44604L13.5333 1.44606Z" fill="black" fill-opacity="0.6"/>
</svg>
