<svg width="48" height="48" viewBox="0 0 48 48" fill="none" xmlns="http://www.w3.org/2000/svg">
<g clip-path="url(#clip0)">
<path d="M32.512 23.04H17.952L23.936 17.504C24.0313 17.4217 24.1088 17.321 24.1639 17.2078C24.219 17.0946 24.2505 16.9715 24.2565 16.8457C24.2625 16.72 24.2428 16.5944 24.1988 16.4765C24.1547 16.3586 24.0871 16.2509 24 16.16C23.8291 15.9753 23.5925 15.8651 23.3411 15.8531C23.0898 15.8412 22.8437 15.9284 22.656 16.096L14.848 23.296C14.7466 23.3831 14.6652 23.4911 14.6094 23.6126C14.5536 23.7341 14.5247 23.8663 14.5247 24C14.5247 24.1337 14.5536 24.2658 14.6094 24.3874C14.6652 24.5089 14.7466 24.6169 14.848 24.704L22.656 31.904C22.8334 32.0607 23.0595 32.1512 23.296 32.16C23.4298 32.1626 23.5625 32.1352 23.6843 32.0799C23.8062 32.0245 23.914 31.9425 24 31.84C24.0871 31.7491 24.1547 31.6414 24.1988 31.5235C24.2428 31.4056 24.2625 31.28 24.2565 31.1543C24.2505 31.0285 24.219 30.9054 24.1639 30.7922C24.1088 30.679 24.0313 30.5783 23.936 30.496L17.952 24.96H32.512C32.7666 24.96 33.0108 24.8589 33.1909 24.6788C33.3709 24.4988 33.472 24.2546 33.472 24C33.472 23.7454 33.3709 23.5012 33.1909 23.3212C33.0108 23.1411 32.7666 23.04 32.512 23.04Z" fill="black" fill-opacity="0.6"/>
</g>
<defs>
<clipPath id="clip0">
<path d="M0 0H48V48H0V0Z" fill="white"/>
</clipPath>
</defs>
</svg>
