<svg width="48" height="48" viewBox="0 0 48 48" fill="none" xmlns="http://www.w3.org/2000/svg">
<g clip-path="url(#clip0)">
<path d="M15.5147 15.5147C14.974 16.0554 14.974 16.9321 15.5147 17.4728L22.0419 24L15.5147 30.5271C14.974 31.0678 14.974 31.9445 15.5147 32.4852C16.0555 33.026 16.9322 33.026 17.4729 32.4852L24 25.9581L30.5272 32.4852C31.0679 33.026 31.9446 33.026 32.4853 32.4852C33.026 31.9445 33.026 31.0678 32.4853 30.5271L25.9582 24L32.4853 17.4728C33.026 16.9321 33.026 16.0554 32.4853 15.5147C31.9446 14.9739 31.0679 14.9739 30.5272 15.5147L24 22.0418L17.4729 15.5147C16.9322 14.9739 16.0555 14.9739 15.5147 15.5147Z" fill="black" fill-opacity="0.6"/>
</g>
<defs>
<clipPath id="clip0">
<path d="M0 0H48V48H0V0Z" fill="white"/>
</clipPath>
</defs>
</svg>
