<svg width="18" height="18" viewBox="0 0 18 18" fill="none" xmlns="http://www.w3.org/2000/svg">
<path fill-rule="evenodd" clip-rule="evenodd" d="M17.82 9.20468C17.82 8.5665 17.7627 7.95286 17.6564 7.36377H9.17999V10.8451H14.0236C13.815 11.9701 13.1809 12.9233 12.2277 13.5615V15.8197H15.1364C16.8382 14.2529 17.82 11.9456 17.82 9.20468Z" fill="#4285F4"/>
<path fill-rule="evenodd" clip-rule="evenodd" d="M9.18 18C11.61 18 13.6473 17.1941 15.1364 15.8195L12.2277 13.5613C11.4218 14.1013 10.3909 14.4204 9.18 14.4204C6.8359 14.4204 4.85181 12.8372 4.14409 10.71H1.13727V13.0418C2.61818 15.9831 5.66181 18 9.18 18Z" fill="#34A853"/>
<path fill-rule="evenodd" clip-rule="evenodd" d="M4.14408 10.7098C3.96408 10.1698 3.86181 9.59301 3.86181 8.99983C3.86181 8.40664 3.96408 7.82983 4.14408 7.28983V4.95801H1.13727C0.52772 6.17301 0.179993 7.54755 0.179993 8.99983C0.179993 10.4521 0.52772 11.8266 1.13727 13.0416L4.14408 10.7098Z" fill="#FBBC05"/>
<path fill-rule="evenodd" clip-rule="evenodd" d="M9.18 3.57955C10.5014 3.57955 11.6877 4.03364 12.6205 4.92545L15.2018 2.34409C13.6432 0.891818 11.6059 0 9.18 0C5.66181 0 2.61818 2.01682 1.13727 4.95818L4.14409 7.29C4.85181 5.16273 6.8359 3.57955 9.18 3.57955Z" fill="#EA4335"/>
</svg>
