<svg width="24" height="24" viewBox="0 0 24 24" fill="none" xmlns="http://www.w3.org/2000/svg">
<path d="M17.3746 1.28281C15.7126 0.413902 13.8425 0.0313994 11.979 0C6.09124 0.0996219 0.795923 4.46186 0.0865857 10.422C-0.636749 16.499 3.24018 22.1172 9.16256 23.6438C15.0195 25.1529 20.9816 21.7119 23.1927 16.2501C25.4922 10.5708 22.6705 4.05081 17.3746 1.28281ZM19.2641 13.9867C19.2641 14.2199 19.069 14.4149 18.8356 14.4149C14.1699 14.4149 9.50337 14.4149 4.8374 14.4149C4.71142 14.4149 4.61543 14.369 4.54687 14.3004C4.54258 14.2967 4.53887 14.293 4.53487 14.2893C4.53087 14.285 4.52687 14.2819 4.52344 14.2776C4.45459 14.2085 4.4086 14.1126 4.4086 13.9867C4.4086 12.7499 4.4086 11.5127 4.4086 10.2759C4.4086 10.0424 4.60343 9.84772 4.83711 9.84772C9.50337 9.84772 14.1693 9.84772 18.8353 9.84772C19.0687 9.84772 19.2638 10.0427 19.2641 10.2759C19.2641 11.513 19.2641 12.7499 19.2641 13.9867Z" fill="#B60000"/>
</svg>
