<svg width="112" height="16" viewBox="0 0 112 16" fill="none" xmlns="http://www.w3.org/2000/svg">
<path fill-rule="evenodd" clip-rule="evenodd" d="M9.07879 4.30316C8.65302 4.02742 8.22697 3.7515 7.77846 3.61063C7.49343 3.52111 7.15331 3.47429 6.75448 3.47429C5.38813 3.47429 4.79233 3.97714 4.78439 4.66286C4.74467 5.40952 5.43579 5.84381 6.97691 6.15619L8.31148 6.43048C11.9021 7.16952 13.3797 8.8381 13.3956 11.2152C13.3797 14.2933 10.9091 16 6.78625 16C3.40399 16 0.961041 14.886 0.101651 12.4494C-0.293525 11.329 0.729523 10.3314 1.91759 10.3314C2.72518 10.3314 3.39024 10.8836 4.04769 11.4295L4.04771 11.4295C4.32085 11.6563 4.59267 11.882 4.87286 12.0665C5.33336 12.3698 5.95733 12.5257 6.7227 12.5257C8.13672 12.5257 8.86756 11.9848 8.88344 11.2152C8.86756 10.5067 8.24793 10.0724 6.43672 9.69143L4.81616 9.35619C1.93253 8.7619 0.168979 7.40571 0.176923 4.96762C0.153092 1.99619 2.8858 0 6.75448 0C9.68283 0 11.7951 1.11943 12.6933 2.9517C13.2296 4.04572 12.1821 5.08952 10.9637 5.08952C10.293 5.08952 9.68619 4.69653 9.07879 4.30316ZM17.2841 0.213333C18.5038 0.213333 19.4925 1.20207 19.4925 2.42174V13.6087C19.4925 14.8284 18.5038 15.8171 17.2841 15.8171C16.0645 15.8171 15.0757 14.8284 15.0757 13.6087V2.42174C15.0757 1.20207 16.0645 0.213333 17.2841 0.213333ZM24.8976 0.213333C23.0685 0.213333 21.5857 1.69611 21.5857 3.52521V13.6564C21.5857 14.8497 22.5531 15.8171 23.7465 15.8171C24.9398 15.8171 25.9072 14.8497 25.9072 13.6564V6.81115C25.9072 6.76923 25.9412 6.73524 25.9831 6.73524C26.0141 6.73524 26.0419 6.75401 26.0535 6.7827L29.1678 14.4859C29.4633 15.2168 30.1728 15.6952 30.9612 15.6952C31.7479 15.6952 32.4563 15.2188 32.7529 14.4901L35.8655 6.84353C35.8772 6.81491 35.905 6.79619 35.9359 6.79619C35.9779 6.79619 36.0119 6.83021 36.0119 6.87218V13.6564C36.0119 14.8497 36.9793 15.8171 38.1726 15.8171C39.366 15.8171 40.3334 14.8497 40.3334 13.6564V3.52521C40.3334 1.69611 38.8506 0.213333 37.0215 0.213333C35.6959 0.213333 34.498 1.00375 33.9766 2.22248L31.0924 8.96379C31.0696 9.01695 31.0174 9.05143 30.9596 9.05143C30.9017 9.05143 30.8495 9.01695 30.8267 8.96379L27.9425 2.22248C27.4211 1.00375 26.2232 0.213333 24.8976 0.213333ZM44.635 15.8171C43.4153 15.8171 42.4266 14.8284 42.4266 13.6087V5.41461C42.4266 2.54202 44.7553 0.213333 47.6279 0.213333H49.449C53.0635 0.213333 55.4864 2.40762 55.4864 5.72952C55.4864 9.08952 52.9999 11.1848 49.2901 11.1848H48.3875C47.5347 11.1848 46.8434 11.8761 46.8434 12.7289V13.6087C46.8434 14.8284 45.8547 15.8171 44.635 15.8171ZM46.8434 6.33633C46.8434 7.19624 47.5405 7.89333 48.4004 7.89333C49.9495 7.89333 50.8789 7.06286 50.8789 5.72952C50.8789 4.38857 49.9495 3.59619 48.4004 3.59619C47.5405 3.59619 46.8434 4.29328 46.8434 5.1532V6.33633ZM57.1069 10.32C57.1069 13.356 59.5681 15.8171 62.6041 15.8171H66.3946C67.3372 15.8171 68.1013 15.053 68.1013 14.1105C68.1013 13.1679 67.3372 12.4038 66.3946 12.4038H63.7163C62.5054 12.4038 61.5237 11.4222 61.5237 10.2113V2.42175C61.5237 1.20208 60.535 0.213333 59.3153 0.213333C58.0957 0.213333 57.1069 1.20207 57.1069 2.42174V10.32ZM75.7334 15.8171C72.5043 15.8171 69.8867 13.1995 69.8867 9.97043V6.07593C69.8867 2.83811 72.5115 0.213333 75.7493 0.213333H79.9052C80.8478 0.213333 81.6119 0.977435 81.6119 1.92C81.6119 2.86257 80.8478 3.62667 79.9052 3.62667H75.6444C74.9039 3.62667 74.3035 4.22703 74.3035 4.96762C74.3035 5.70821 74.9039 6.30857 75.6444 6.30857H79.3015C80.244 6.30857 81.0081 7.07267 81.0081 8.01524C81.0081 8.9578 80.244 9.7219 79.3015 9.7219H75.1975C74.7037 9.7219 74.3035 10.1221 74.3035 10.6159C74.3035 11.6033 75.104 12.4038 76.0914 12.4038H79.8734C80.816 12.4038 81.5801 13.1679 81.5801 14.1105C81.5801 15.053 80.816 15.8171 79.8734 15.8171H75.7334ZM88.4326 16L107.841 16C110.138 16 112 14.2091 112 12V4C112 1.79086 110.138 0 107.841 0H88.4326C86.1356 0 84.2736 1.79086 84.2736 4V12C84.2736 14.2091 86.1356 16 88.4326 16ZM92.0272 4.77293C91.8596 4.21895 91.3491 3.84 90.7704 3.84C89.8693 3.84 89.236 4.72692 89.5285 5.57923L91.4965 11.3137C91.7738 12.1218 92.5339 12.6645 93.3882 12.6645H93.9368C94.7912 12.6645 95.5512 12.1218 95.8285 11.3137L97.7965 5.57923C98.089 4.72692 97.4557 3.84 96.5546 3.84C95.9759 3.84 95.4654 4.21895 95.2978 4.77293L93.7087 10.0276C93.7026 10.048 93.6838 10.0619 93.6625 10.0619C93.6412 10.0619 93.6224 10.048 93.6163 10.0276L92.0272 4.77293ZM99.2771 11.419C99.2771 12.1069 99.8347 12.6645 100.523 12.6645C101.21 12.6645 101.768 12.1069 101.768 11.419V10.2929C101.768 9.99401 102.01 9.7517 102.309 9.7517C102.506 9.7517 102.687 9.85855 102.783 10.0307L103.906 12.0591C104.113 12.4326 104.506 12.6645 104.933 12.6645C105.832 12.6645 106.398 11.6946 105.955 10.9119L105.531 10.1634C105.29 9.73742 105.48 9.20631 105.836 8.87066C106.352 8.3854 106.642 7.7036 106.642 6.83894C106.642 4.96029 105.276 3.84 103.237 3.84H101.277C100.173 3.84 99.2771 4.73543 99.2771 5.84V11.419ZM102.646 7.89029C102.161 7.89029 101.768 7.49716 101.768 7.0122V6.6312C101.768 6.14625 102.161 5.75312 102.646 5.75312C103.52 5.75312 104.044 6.08059 104.044 6.83894C104.044 7.59298 103.52 7.89029 102.646 7.89029Z" fill="white" fill-opacity="0.9"/>
</svg>
