<svg width="11" height="16" viewBox="0 0 11 16" fill="none" xmlns="http://www.w3.org/2000/svg">
<path fill-rule="evenodd" clip-rule="evenodd" d="M0.916717 0H9.29327C9.79898 0 10.2108 0.411783 10.2108 0.917499V15.0825C10.2108 15.5882 9.79898 16 9.29327 16H0.916717C0.42509 16 0.01956 15.6101 0 15.1193V0.884752C0.0195713 0.393907 0.424308 0.00404824 0.916717 0.00404824V0ZM3.83048 6.84281H4.8435V9.15775H3.83048V6.84281ZM2.29061 1.09424L5.84328 2.98561C6.02726 3.08347 6.13137 3.27136 6.13137 3.46628C6.13372 6.48887 6.13372 9.51226 6.13372 12.5348C6.13372 12.7611 5.99594 12.9552 5.79944 13.0382L2.28985 14.9061H9.11563V1.09422L2.29061 1.09424Z" fill="black" fill-opacity="0.6"/>
</svg>
