<svg width="24" height="24" viewBox="0 0 24 24" fill="none" xmlns="http://www.w3.org/2000/svg">
<path fill-rule="evenodd" clip-rule="evenodd" d="M11.7177 1H22.7875C23.4558 1 24 1.54418 24 2.21249V20.9319C24 21.6002 23.4558 22.1444 22.7875 22.1444H11.7177C11.068 22.1444 10.5321 21.6292 10.5062 20.9805V2.16922C10.5321 1.52056 11.067 1.00535 11.7177 1.00535V1ZM4.87407 14.5133C4.17575 15.1557 5.15237 16.2172 5.85069 15.5747L8.95655 12.7162C9.26382 12.4338 9.26795 11.9362 8.95655 11.6548L5.85069 8.79629C5.15237 8.15383 4.17575 9.21528 4.87407 9.85775L6.61729 11.4623H0.71306C-0.237687 11.4623 -0.237687 12.9076 0.71306 12.9076H6.61729L4.87303 14.5122L4.87407 14.5133ZM15.5683 10.0429H16.907V13.1022H15.5683V10.0429ZM13.5333 2.44606L18.2283 4.94555C18.4714 5.07487 18.609 5.32317 18.609 5.58076C18.6121 9.57518 18.6121 13.5707 18.6121 17.5651C18.6121 17.8641 18.43 18.1206 18.1703 18.2303L13.5323 20.6987H22.5528V2.44604L13.5333 2.44606Z" fill="black" fill-opacity="0.6"/>
</svg>
