<svg width="24" height="24" viewBox="0 0 24 24" fill="none" xmlns="http://www.w3.org/2000/svg">
<g clip-path="url(#clip0)">
<path d="M12 22.0895C11.8695 22.0905 11.7402 22.0638 11.6208 22.0112C11.5013 21.9587 11.3943 21.8814 11.3069 21.7845C6.45527 16.2952 5.25391 14.9922 1.28018 10.0759C0.575793 9.16695 0.142266 8.07766 0.0294646 6.9333C-0.0833372 5.78893 0.129168 4.63597 0.642537 3.60701C1.08408 2.55051 1.81753 1.6417 2.75698 0.987037C3.69642 0.33237 4.80297 -0.041048 5.947 -0.0894775C7.19234 -0.0620629 8.40826 0.294337 9.47134 0.943549C10.5344 1.59276 11.4068 2.51167 12 3.60701C12.5909 2.51177 13.4615 1.5927 14.5232 0.943372C15.5848 0.294046 16.7996 -0.0623342 18.0438 -0.0894775C19.1894 -0.042773 20.2979 0.329844 21.2391 0.984618C22.1804 1.63939 22.9153 2.54913 23.3575 3.60701C23.8708 4.63597 24.0833 5.78893 23.9705 6.9333C23.8577 8.07766 23.4242 9.16695 22.7198 10.0759C18.7461 14.9922 17.5447 16.2952 12.6931 21.7845C12.6056 21.8814 12.4987 21.9587 12.3792 22.0112C12.2598 22.0638 12.1305 22.0905 12 22.0895Z" fill="#E34B78"/>
<path d="M12 22.0895C11.8695 22.0905 11.7402 22.0638 11.6208 22.0112C11.5013 21.9587 11.3943 21.8814 11.3069 21.7845C6.45527 16.2952 5.25391 14.9922 1.28018 10.0759C0.575793 9.16695 0.142266 8.07766 0.0294646 6.9333C-0.0833372 5.78893 0.129168 4.63597 0.642537 3.60701C1.08408 2.55051 1.81753 1.6417 2.75698 0.987037C3.69642 0.33237 4.80297 -0.041048 5.947 -0.0894775C7.19234 -0.0620629 8.40826 0.294337 9.47134 0.943549C10.5344 1.59276 11.4068 2.51167 12 3.60701C12.5909 2.51177 13.4615 1.5927 14.5232 0.943372C15.5848 0.294046 16.7996 -0.0623342 18.0438 -0.0894775C19.1894 -0.042773 20.2979 0.329845 21.2391 0.984618C22.1804 1.63939 22.9153 2.54913 23.3575 3.60701C23.8708 4.63597 24.0833 5.78893 23.9705 6.9333C23.8577 8.07766 23.4242 9.16695 22.7198 10.0759C18.7461 14.9922 17.5447 16.2952 12.6931 21.7845C12.6056 21.8814 12.4987 21.9587 12.3792 22.0112C12.2598 22.0638 12.1305 22.0905 12 22.0895ZM5.95624 1.75877C5.16592 1.80309 4.40435 2.07058 3.7599 2.53021C3.11544 2.98983 2.61451 3.62275 2.3152 4.35555C1.93588 5.08399 1.77181 5.90536 1.84218 6.72362C1.91255 7.54188 2.21445 8.32319 2.71257 8.97616C6.46451 13.5968 7.69359 14.983 12 19.8069C16.3064 14.983 17.5447 13.5783 21.2874 8.97616C21.7855 8.32319 22.0874 7.54188 22.1578 6.72362C22.2282 5.90536 22.0641 5.08399 21.6848 4.35555C21.3855 3.62275 20.8846 2.98983 20.2401 2.53021C19.5956 2.07058 18.8341 1.80309 18.0438 1.75877C16.786 1.84025 15.5935 2.34782 14.6629 3.19784C13.7322 4.04785 13.1189 5.18957 12.9241 6.43483C12.9241 6.67992 12.8268 6.91497 12.6535 7.08828C12.4801 7.26159 12.2451 7.35895 12 7.35895C11.7549 7.35895 11.5199 7.26159 11.3465 7.08828C11.1732 6.91497 11.0759 6.67992 11.0759 6.43483C10.8811 5.18957 10.2678 4.04785 9.33713 3.19784C8.40648 2.34782 7.21401 1.84025 5.95624 1.75877Z" fill="white"/>
</g>
<defs>
<clipPath id="clip0">
<rect width="24" height="24" fill="white"/>
</clipPath>
</defs>
</svg>
