<svg width="12" height="20" viewBox="0 0 12 20" fill="none" xmlns="http://www.w3.org/2000/svg">
<path d="M5.74709 4.08304L0.165701 8.26908C0.0626852 8.34702 -0.000540701 8.47566 3.48474e-06 8.60483V15.5816C3.48474e-06 15.8007 0.199496 16.0002 0.418608 16.0002H4.18605C4.40516 16.0002 4.60465 15.8007 4.60465 15.5816V12.3723H7.39535V15.5816C7.39535 15.8007 7.59484 16.0002 7.81395 16.0002H11.5814C11.8005 16.0002 12 15.8007 12 15.5816V8.60483C12 8.47565 11.9373 8.34701 11.8343 8.26908L6.25291 4.08304C6.07031 3.96694 5.91061 3.97784 5.74709 4.08304ZM6 4.94204L11.1628 8.81413V15.163H8.23256V11.9537C8.23256 11.7346 8.03306 11.5351 7.81395 11.5351H4.18605C3.96694 11.5351 3.76744 11.7346 3.76744 11.9537V15.163H0.837212V8.81413L6 4.94204Z" fill="black" fill-opacity="0.6"/>
</svg>
