<svg width="32" height="32" viewBox="0 0 32 32" fill="none" xmlns="http://www.w3.org/2000/svg">
<g clip-path="url(#clip0)">
<path d="M4.3769 12.1713L5.33333 13.1278C3.88072 14.5804 3.88072 16.9356 5.33333 18.3882L4.3769 19.3446C2.39606 17.3638 2.39606 14.1522 4.3769 12.1713Z" fill="black" fill-opacity="0.6"/>
<path d="M2.17892 10.6667L3.13536 11.6231C0.75835 14.0001 0.75835 17.854 3.13536 20.231L2.17892 21.1874C-0.726308 18.2822 -0.726308 13.5719 2.17892 10.6667Z" fill="black" fill-opacity="0.6"/>
<path fill-rule="evenodd" clip-rule="evenodd" d="M12.9184 13.4944H11.1636V19.5937H9.72559V13.4944H8V12.2604H12.9184V13.4944ZM16.0024 14.7787L16.9578 12.2604H18.6005L16.9334 15.8968L18.6395 19.5937H16.9773L16.0024 17.0301L15.0323 19.5937H13.3701L15.0762 15.8968L13.4042 12.2604H15.047L16.0024 14.7787ZM24 13.4944H22.2451V19.5937H20.8071V13.4944H19.0815V12.2604H24V13.4944Z" fill="black" fill-opacity="0.6"/>
<path d="M27.6224 19.6828L26.666 18.7263C28.1186 17.2737 28.1186 14.9185 26.666 13.4659L27.6224 12.5095C29.6033 14.4903 29.6033 17.7019 27.6224 19.6828Z" fill="black" fill-opacity="0.6"/>
<path d="M29.8204 21.1874L28.864 20.231C31.241 17.854 31.241 14.0001 28.864 11.6231L29.8204 10.6667C32.7257 13.5719 32.7257 18.2822 29.8204 21.1874Z" fill="black" fill-opacity="0.6"/>
</g>
<defs>
<clipPath id="clip0">
<rect width="32" height="10.5208" fill="white" transform="translate(0 10.6667)"/>
</clipPath>
</defs>
</svg>
