<svg width="32" height="32" viewBox="0 0 32 32" fill="none" xmlns="http://www.w3.org/2000/svg">
<g clip-path="url(#clip0)">
<path d="M4.3769 12.8615L5.33333 13.8179C3.88072 15.2705 3.88072 17.6257 5.33333 19.0783L4.3769 20.0347C2.39606 18.0539 2.39606 14.8423 4.3769 12.8615Z" fill="black" fill-opacity="0.6"/>
<path d="M2.17892 11.3568L3.13536 12.3132C0.75835 14.6902 0.75835 18.5441 3.13536 20.9211L2.17892 21.8775C-0.726308 18.9723 -0.726308 14.262 2.17892 11.3568Z" fill="black" fill-opacity="0.6"/>
<path d="M22.2369 10.6667H9.76309C9.29549 10.6667 8.84704 10.8524 8.5164 11.1831C8.18575 11.5137 8 11.9622 8 12.4298V20.8044C8 21.272 8.18575 21.7205 8.5164 22.0511C8.84704 22.3817 9.29549 22.5675 9.76309 22.5675H22.2369C22.7045 22.5675 23.153 22.3817 23.4836 22.0511C23.8142 21.7205 24 21.272 24 20.8044V12.4298C24 11.9622 23.8142 11.5137 23.4836 11.1831C23.153 10.8524 22.7045 10.6667 22.2369 10.6667ZM9.32231 12.4298C9.32231 12.3129 9.36875 12.2007 9.45141 12.1181C9.53407 12.0354 9.64619 11.989 9.76309 11.989H22.2369C22.3538 11.989 22.4659 12.0354 22.5486 12.1181C22.6312 12.2007 22.6777 12.3129 22.6777 12.4298V18.2039L19.3939 15.3168C19.3291 15.2564 19.2527 15.2097 19.1694 15.1794C19.0861 15.1491 18.9976 15.1359 18.9091 15.1405C18.7301 15.1612 18.5652 15.2476 18.4463 15.3829L16.7273 17.5207L14.1488 15.9118C14.0078 15.8272 13.8411 15.7962 13.6792 15.8245C13.5173 15.8529 13.371 15.9387 13.2672 16.0661L9.47658 21.135C9.42483 21.0976 9.3835 21.0476 9.3565 20.9897C9.3295 20.9319 9.31773 20.8681 9.32231 20.8044V12.4298ZM15.8898 18.5565L13.708 21.2452H11.0413L13.9504 17.3444L15.8898 18.5565ZM22.2369 21.2452H15.405L19.0413 16.7493L22.6777 19.989V20.8044C22.6777 20.9213 22.6312 21.0334 22.5486 21.1161C22.4659 21.1987 22.3538 21.2452 22.2369 21.2452Z" fill="black" fill-opacity="0.6"/>
<path d="M27.6224 20.3728L26.666 19.4164C28.1186 17.9638 28.1186 15.6086 26.666 14.156L27.6224 13.1996C29.6033 15.1804 29.6033 18.392 27.6224 20.3728Z" fill="black" fill-opacity="0.6"/>
<path d="M29.8204 21.8775L28.864 20.9211C31.241 18.544 31.241 14.6902 28.864 12.3131L29.8204 11.3567C32.7257 14.2619 32.7257 18.9723 29.8204 21.8775Z" fill="black" fill-opacity="0.6"/>
</g>
<defs>
<clipPath id="clip0">
<rect width="32" height="11.9008" fill="white" transform="translate(0 10.6667)"/>
</clipPath>
</defs>
</svg>
