<svg width="33" height="32" viewBox="0 0 33 32" fill="none" xmlns="http://www.w3.org/2000/svg">
<g clip-path="url(#clip0)">
<path d="M4.8769 12.5281L5.83333 13.4845C4.38072 14.9371 4.38072 17.2923 5.83333 18.7449L4.8769 19.7013C2.89606 17.7205 2.89606 14.5089 4.8769 12.5281Z" fill="black" fill-opacity="0.6"/>
<path d="M2.67892 11.0234L3.63536 11.9798C1.25835 14.3568 1.25835 18.2107 3.63536 20.5877L2.67892 21.5442C-0.226308 18.6389 -0.226308 13.9286 2.67892 11.0234Z" fill="black" fill-opacity="0.6"/>
<path d="M22.7369 5.33333H10.2631C9.79549 5.33333 9.34704 5.51909 9.0164 5.84973C8.68575 6.18037 8.5 6.62882 8.5 7.09642V15.4711C8.5 15.9387 8.68575 16.3871 9.0164 16.7178C9.34704 17.0484 9.79549 17.2342 10.2631 17.2342H22.7369C23.2045 17.2342 23.653 17.0484 23.9836 16.7178C24.3142 16.3871 24.5 15.9387 24.5 15.4711V7.09642C24.5 6.62882 24.3142 6.18037 23.9836 5.84973C23.653 5.51909 23.2045 5.33333 22.7369 5.33333ZM9.82231 7.09642C9.82231 6.97952 9.86875 6.86741 9.95141 6.78474C10.0341 6.70208 10.1462 6.65565 10.2631 6.65565H22.7369C22.8538 6.65565 22.9659 6.70208 23.0486 6.78474C23.1312 6.86741 23.1777 6.97952 23.1777 7.09642V12.8705L19.8939 9.98347C19.8291 9.92308 19.7527 9.87636 19.6694 9.84607C19.5861 9.81578 19.4976 9.80255 19.4091 9.80716C19.2301 9.82785 19.0652 9.91424 18.9463 10.0496L17.2273 12.1873L14.6488 10.5785C14.5078 10.4939 14.3411 10.4629 14.1792 10.4912C14.0173 10.5195 13.871 10.6053 13.7672 10.7328L9.97658 15.8017C9.92483 15.7643 9.8835 15.7143 9.8565 15.6564C9.8295 15.5985 9.81773 15.5348 9.82231 15.4711V7.09642ZM16.3898 13.2231L14.208 15.9118H11.5413L14.4504 12.011L16.3898 13.2231ZM22.7369 15.9118H15.905L19.5413 11.416L23.1777 14.6556V15.4711C23.1777 15.588 23.1312 15.7001 23.0486 15.7827C22.9659 15.8654 22.8538 15.9118 22.7369 15.9118Z" fill="black" fill-opacity="0.6"/>
<path fill-rule="evenodd" clip-rule="evenodd" d="M13.4184 21.1348H11.6636V27.2342H10.2256V21.1348H8.5V19.9008H13.4184V21.1348ZM16.5024 22.4191L17.4578 19.9008H19.1005L17.4334 23.5373L19.1395 27.2342H17.4773L16.5024 24.6705L15.5323 27.2342H13.8701L15.5762 23.5373L13.9042 19.9008H15.547L16.5024 22.4191ZM24.5 21.1348H22.7451V27.2342H21.3071V21.1348H19.5815V19.9008H24.5V21.1348Z" fill="black" fill-opacity="0.6"/>
<path d="M28.1224 20.0395L27.166 19.083C28.6186 17.6304 28.6186 15.2753 27.166 13.8226L28.1224 12.8662C30.1033 14.8471 30.1033 18.0586 28.1224 20.0395Z" fill="black" fill-opacity="0.6"/>
<path d="M30.3204 21.5442L29.364 20.5877C31.741 18.2107 31.741 14.3568 29.364 11.9798L30.3204 11.0234C33.2257 13.9286 33.2257 18.6389 30.3204 21.5442Z" fill="black" fill-opacity="0.6"/>
</g>
<defs>
<clipPath id="clip0">
<rect width="32" height="21.9008" fill="white" transform="translate(0.5 5.33333)"/>
</clipPath>
</defs>
</svg>
