<svg width="24" height="24" viewBox="0 0 24 24" fill="none" xmlns="http://www.w3.org/2000/svg">
<path d="M11.9858 0C10.7502 0 9.56515 0.491252 8.69132 1.36499C7.81758 2.23779 7.32726 3.42372 7.32726 4.65849V11.492C7.32726 13.1569 8.21506 14.6945 9.65599 15.5268C11.0978 16.3593 12.8734 16.3593 14.3153 15.5268C15.7562 14.6943 16.645 13.1568 16.645 11.4927V4.65921C16.645 3.4236 16.1537 2.23762 15.28 1.36475C14.4063 0.491012 13.2215 0 11.9858 0ZM15.0916 11.4918C15.0916 13.2074 13.7013 14.5986 11.9858 14.5986C10.2703 14.5986 8.87995 13.2074 8.87995 11.4918V4.65933C8.87995 2.94372 10.2703 1.55255 11.9858 1.55255C13.7013 1.55255 15.0916 2.94379 15.0916 4.65837V11.4918Z" fill="black" fill-opacity="0.6"/>
<path d="M11.2096 19.2186V22.4463H8.10282C7.68189 22.4567 7.34534 22.8017 7.34534 23.2226C7.34534 23.6445 7.68189 23.9885 8.10282 23.9998H15.8689C16.2899 23.9885 16.6264 23.6445 16.6264 23.2226C16.6264 22.8017 16.2899 22.4567 15.8689 22.4463H12.7621V19.2186C16.8028 18.8267 19.9705 15.4125 19.9705 11.2715C19.9752 11.0625 19.8964 10.86 19.7502 10.71C19.6039 10.56 19.4043 10.4756 19.1943 10.4756C18.9852 10.4756 18.7846 10.56 18.6383 10.71C18.4921 10.86 18.4133 11.0625 18.418 11.2715C18.418 14.818 15.5325 17.7037 11.9858 17.7037C8.43912 17.7037 5.55362 14.8182 5.55362 11.2725C5.55831 11.0625 5.47956 10.86 5.33331 10.711C5.18706 10.561 4.98644 10.4766 4.77738 10.4766C4.56738 10.4766 4.3677 10.561 4.22145 10.711C4.0752 10.86 3.99551 11.0625 4.0002 11.2725C4.0002 15.4125 7.16899 18.8269 11.2096 19.2186Z" fill="black" fill-opacity="0.6"/>
</svg>
