<svg width="17" height="16" viewBox="0 0 17 16" fill="none" xmlns="http://www.w3.org/2000/svg">
<path d="M4.83402 6.33311V3.69439C4.83402 1.83807 6.4753 0.333111 8.5009 0.333111C10.5259 0.333111 12.1678 1.83937 12.1678 3.69439V6.33311H12.9115C13.6053 6.33311 14.1678 6.93124 14.1678 7.66561V14.3344C14.1678 15.07 13.6053 15.6669 12.9115 15.6669H4.09024C3.3965 15.6669 2.83398 15.0688 2.83398 14.3344V7.66561C2.83398 6.92998 3.39648 6.33311 4.09024 6.33311H4.83402ZM4.16776 7.66686V14.3331H12.834V7.66686H4.16776ZM10.834 6.33311V3.69439C10.834 2.60252 9.81338 1.66687 8.50088 1.66687C7.18714 1.66687 6.16776 2.60124 6.16776 3.69439V6.33311H10.834ZM7.834 10.1894C7.834 9.8213 8.13026 9.52318 8.50088 9.52318C8.86901 9.52318 9.16776 9.81881 9.16776 10.1894V12.1901C9.16776 12.5582 8.8715 12.8563 8.50088 12.8563C8.13275 12.8563 7.834 12.5607 7.834 12.1901V10.1894Z" fill="black" fill-opacity="0.6"/>
</svg>
