<svg width="12" height="12" viewBox="0 0 12 12" fill="none" xmlns="http://www.w3.org/2000/svg">
<path d="M6.18639 1.94391C6.02748 1.86188 5.83576 1.87453 5.68952 1.97766L2.76032 4.03782H2.25969C1.66343 4.03782 1.17969 4.52156 1.17969 5.11782V6.88218C1.17969 7.47843 1.66343 7.96218 2.25969 7.96218H2.76032L5.68952 10.0223C5.83624 10.1255 6.02748 10.1381 6.18686 10.0556C6.34576 9.97312 6.4456 9.80905 6.4456 9.62999V2.36999C6.4456 2.19093 6.3453 2.02641 6.18639 1.94391ZM5.48561 8.70615L3.27641 7.15227C3.18594 7.05664 3.06078 7.00273 2.92954 7.00227H2.2597C2.19361 7.00227 2.1397 6.94836 2.1397 6.88227V5.11791C2.1397 5.05181 2.19361 4.99791 2.2597 4.99791H2.92954C3.0608 4.99744 3.18594 4.94353 3.27641 4.84791L5.48561 3.29403V8.70615Z" fill="black" fill-opacity="0.6"/>
<path d="M7.14732 8.36067C7.23732 8.45067 7.35966 8.5013 7.48716 8.5013C7.61466 8.5013 7.73653 8.45067 7.82653 8.36067C8.45278 7.73441 8.80434 6.88551 8.80434 6.00003C8.80434 5.11455 8.45277 4.26567 7.82653 3.63939C7.63856 3.45189 7.33434 3.45236 7.14684 3.64033C6.95934 3.82829 6.95981 4.13252 7.14731 4.32002C7.59168 4.76627 7.84153 5.37049 7.84153 6.00002C7.84153 6.62955 7.59169 7.23374 7.14731 7.68002C7.05684 7.77002 7.00621 7.89236 7.00621 8.02033C7.00621 8.14783 7.05685 8.2702 7.14732 8.36067Z" fill="black" fill-opacity="0.6"/>
<path d="M8.61735 2.31937C8.52735 2.40984 8.47672 2.53171 8.47672 2.65921C8.47672 2.78671 8.52735 2.90858 8.61735 2.99858C9.41282 3.79451 9.85959 4.87358 9.85959 5.99858C9.85959 7.12405 9.41287 8.2031 8.61735 8.99858C8.42985 9.18655 8.42985 9.4903 8.61735 9.6778C8.80485 9.86577 9.10907 9.86577 9.29657 9.6778C10.2725 8.70187 10.8209 7.3786 10.8209 5.99812C10.8209 4.61812 10.2725 3.2944 9.29657 2.31844C9.20657 2.22844 9.08423 2.17781 8.95673 2.17828C8.8297 2.17828 8.70735 2.22936 8.61735 2.31937Z" fill="black" fill-opacity="0.6"/>
</svg>
