<svg width="24" height="23" viewBox="0 0 24 23" fill="none" xmlns="http://www.w3.org/2000/svg">
<path fill-rule="evenodd" clip-rule="evenodd" d="M23.206 6.66093C23.0794 5.42812 22.0613 4.20189 20.9363 3.94605C20.9363 3.94605 20.5041 3.82511 19.7569 3.66105C19.7194 3.59542 19.6819 3.52979 19.6228 3.47636C17.5603 1.5751 14.8632 0.499878 12 0.499878C9.0338 0.499878 6.24932 1.65675 4.16444 3.6818C3.46318 3.83742 3.06288 3.94993 3.06288 3.94993C1.93882 4.20586 0.920692 5.43305 0.79414 6.66481C0.79414 6.66481 0.499756 8.91574 0.499756 11.747C0.499756 14.5764 0.79414 16.8274 0.79414 16.8274C0.920701 18.0602 1.93882 19.2874 3.06288 19.5432C3.06288 19.5432 3.4632 19.6548 4.1635 19.8104C6.24756 21.8363 9.03094 22.9998 12 22.9998C14.9287 22.9998 17.6822 21.8748 19.7597 19.8946C19.7831 19.8731 19.7934 19.844 19.8131 19.8196C20.5275 19.6612 20.9362 19.5468 20.9362 19.5468C22.0612 19.2909 23.0794 18.0637 23.2059 16.832C23.2059 16.832 23.5003 14.581 23.5003 11.7507C23.5003 8.91195 23.206 6.66093 23.206 6.66093ZM21.7585 15.2241C21.7275 15.6104 21.6938 15.9591 21.661 16.2638C21.6413 16.4438 21.6272 16.5657 21.6197 16.6247C21.556 17.2397 21.015 17.8885 20.5819 17.9869L20.5032 18.0066C20.4807 18.0132 20.4263 18.0272 20.3429 18.0497C20.1957 18.0872 20.0232 18.1304 19.8254 18.1763C19.2526 18.3104 18.601 18.4454 17.8819 18.571C15.9835 18.9029 13.9838 19.1138 11.9748 19.1429C9.95635 19.111 7.90224 18.8879 5.9616 18.5391C5.28379 18.4172 4.66972 18.2888 4.13253 18.1622C3.81566 18.0882 3.60002 18.0319 3.49692 18.0029L3.41817 17.9832C2.98504 17.8838 2.44504 17.236 2.38598 16.6641C2.37285 16.5619 2.35879 16.4391 2.3391 16.2601C2.30629 15.9554 2.27348 15.6066 2.24254 15.2204C2.15348 14.1151 2.10004 12.9394 2.10004 11.7469C2.10004 10.5543 2.15348 9.37779 2.24254 8.27238C2.27348 7.88612 2.30629 7.53737 2.3391 7.23269C2.35879 7.05363 2.37285 6.93082 2.38035 6.87269C2.44504 6.25676 2.98503 5.60801 3.41816 5.50957L3.49691 5.48988C3.60004 5.46082 3.81565 5.40457 4.13253 5.3305C4.66972 5.203 5.28378 5.07457 5.96159 4.95363C7.90221 4.60395 9.95639 4.38176 12.0235 4.34989C13.9838 4.37895 15.9835 4.58895 17.8819 4.92176C18.601 5.04832 19.2525 5.18238 19.8254 5.31644C20.0232 5.36238 20.1957 5.4055 20.3428 5.443C20.4263 5.46456 20.4807 5.47956 20.5032 5.48613L20.5819 5.50582C21.015 5.60425 21.556 6.25301 21.6141 6.82394L21.6197 6.868C21.6272 6.92707 21.6413 7.04894 21.661 7.22894C21.6938 7.53362 21.7275 7.88333 21.7585 8.26862C21.8466 9.37581 21.9 10.5542 21.9 11.7505C21.9 12.9431 21.8466 14.1187 21.7585 15.2241ZM12.0001 21.4996C10.4045 21.4996 8.87359 21.1096 7.50751 20.399C8.82751 20.5762 10.3585 20.7178 11.9982 20.7431C13.6425 20.7187 15.1772 20.5772 16.5001 20.4009C15.1323 21.1134 13.5975 21.4996 12.0001 21.4996ZM12.0001 1.99965C13.5863 1.99965 15.1107 2.38309 16.473 3.08809C15.1558 2.91278 13.6314 2.77403 11.9982 2.74965C10.3632 2.7759 8.83687 2.91558 7.51975 3.09184C8.88288 2.3859 10.4101 1.99965 12.0001 1.99965Z" fill="white"/>
<path d="M15.6489 11.0956L10.1044 7.40003C9.62438 7.08784 9 7.42441 9 8.00003V15.3923C9 15.9679 9.64781 16.3045 10.1044 15.9923L15.6489 12.2968C16.0811 12.008 16.0811 11.3834 15.6489 11.0956Z" fill="white"/>
</svg>
