<svg width="24" height="24" viewBox="0 0 24 24" fill="none" xmlns="http://www.w3.org/2000/svg">
<path d="M10.9644 16.8494C11.1786 17.032 11.4509 17.1323 11.7324 17.1323C12.0138 17.1323 12.2861 17.032 12.5004 16.8494L21.1083 8.84941C21.329 8.64572 21.4597 8.36272 21.4717 8.06266C21.4837 7.76261 21.376 7.47007 21.1723 7.24941C20.9687 7.02875 20.6857 6.89804 20.3856 6.88604C20.0855 6.87404 19.793 6.98172 19.5723 7.18541L11.7324 14.4814L3.89235 7.18541C3.68036 6.99844 3.40702 6.89594 3.12436 6.89741C2.81211 6.90355 2.5142 7.02959 2.29236 7.24941C2.09347 7.47234 1.98897 7.76383 2.00091 8.06235C2.01285 8.36086 2.1403 8.64307 2.35635 8.84941L10.9644 16.8494Z" fill="black" fill-opacity="0.6"/>
</svg>
