<svg width="24" height="24" viewBox="0 0 24 24" fill="none" xmlns="http://www.w3.org/2000/svg">
<path d="M16.8368 12.7807C17.0194 12.5664 17.1196 12.2942 17.1196 12.0127C17.1196 11.7312 17.0194 11.4589 16.8368 11.2447L8.83677 2.63668C8.63309 2.41602 8.35009 2.28531 8.05003 2.27331C7.74997 2.2613 7.45743 2.36899 7.23677 2.57268C7.01611 2.77636 6.88541 3.05936 6.8734 3.35942C6.8614 3.65948 6.96909 3.95202 7.17278 4.17268L14.4688 12.0127L7.17278 19.8527C6.9858 20.0647 6.8833 20.338 6.88477 20.6207C6.89091 20.9329 7.01695 21.2308 7.23677 21.4527C7.45971 21.6516 7.75119 21.7561 8.04971 21.7441C8.34823 21.7322 8.63043 21.6047 8.83677 21.3887L16.8368 12.7807Z" fill="black" fill-opacity="0.6"/>
</svg>
