<svg width="24" height="24" viewBox="0 0 24 24" fill="none" xmlns="http://www.w3.org/2000/svg">
<path d="M7.15543 11.2368C6.97285 11.451 6.87256 11.7233 6.87256 12.0048C6.87256 12.2862 6.97285 12.5585 7.15543 12.7728L15.1554 21.3808C15.3591 21.6014 15.6421 21.7321 15.9422 21.7441C16.2422 21.7561 16.5348 21.6484 16.7554 21.4448C16.9761 21.2411 17.1068 20.9581 17.1188 20.658C17.1308 20.358 17.0231 20.0654 16.8194 19.8448L9.52343 12.0048L16.8194 4.16476C17.0064 3.95277 17.1089 3.67943 17.1074 3.39676C17.1013 3.08452 16.9753 2.7866 16.7554 2.56476C16.5325 2.36588 16.241 2.26138 15.9425 2.27332C15.644 2.28526 15.3618 2.41271 15.1554 2.62876L7.15543 11.2368Z" fill="black" fill-opacity="0.1"/>
</svg>
