<svg width="24" height="24" viewBox="0 0 24 24" fill="none" xmlns="http://www.w3.org/2000/svg">
<path d="M16.8939 17.638L15.3411 16.0852C17.6995 13.7268 17.6995 9.90311 15.3411 7.54473L16.8939 5.99192C20.1099 9.2079 20.1099 14.422 16.8939 17.638Z" fill="black" fill-opacity="0.6"/>
<path d="M20.4624 20.0809L18.9096 18.5281C22.7688 14.6689 22.7688 8.41198 18.9096 4.55281L20.4624 3C25.1792 7.71677 25.1792 15.3642 20.4624 20.0809Z" fill="black" fill-opacity="0.6"/>
<path d="M7.10608 5.44292L8.65889 6.99573C6.30051 9.35411 6.30051 13.1778 8.65889 15.5362L7.10608 17.089C3.89011 13.873 3.89011 8.65889 7.10608 5.44292Z" fill="black" fill-opacity="0.6"/>
<path d="M3.53757 3L5.09038 4.55281C1.23121 8.41198 1.23121 14.6689 5.09038 18.5281L3.53757 20.0809C-1.17919 15.3642 -1.17919 7.71677 3.53757 3Z" fill="black" fill-opacity="0.6"/>
<path fill-rule="evenodd" clip-rule="evenodd" d="M12 13.7365C13.2128 13.7365 14.196 12.7533 14.196 11.5405C14.196 10.3277 13.2128 9.34448 12 9.34448C10.7872 9.34448 9.80402 10.3277 9.80402 11.5405C9.80402 12.7533 10.7872 13.7365 12 13.7365Z" fill="black" fill-opacity="0.6"/>
</svg>
