<svg width="25" height="24" viewBox="0 0 25 24" fill="none" xmlns="http://www.w3.org/2000/svg">
<path d="M21.8554 3H3.14463C2.44323 3 1.77056 3.27863 1.27459 3.77459C0.77863 4.27056 0.5 4.94323 0.5 5.64463V18.2066C0.5 18.908 0.77863 19.5807 1.27459 20.0766C1.77056 20.5726 2.44323 20.8512 3.14463 20.8512H21.8554C22.5568 20.8512 23.2294 20.5726 23.7254 20.0766C24.2214 19.5807 24.5 18.908 24.5 18.2066V5.64463C24.5 4.94323 24.2214 4.27056 23.7254 3.77459C23.2294 3.27863 22.5568 3 21.8554 3ZM2.48347 5.64463C2.48347 5.46928 2.55313 5.30111 2.67712 5.17712C2.80111 5.05313 2.96928 4.98347 3.14463 4.98347H21.8554C22.0307 4.98347 22.1989 5.05313 22.3229 5.17712C22.4469 5.30111 22.5165 5.46928 22.5165 5.64463V14.3058L17.5909 9.97521C17.4936 9.88463 17.3791 9.81454 17.2541 9.76911C17.1292 9.72368 16.9964 9.70383 16.8636 9.71074C16.5952 9.74178 16.3478 9.87136 16.1694 10.0744L13.5909 13.281L9.72314 10.8678C9.51176 10.7408 9.2617 10.6943 9.01882 10.7368C8.77594 10.7793 8.55652 10.908 8.40083 11.0992L2.71488 18.7025C2.63725 18.6464 2.57524 18.5714 2.53474 18.4846C2.49425 18.3978 2.4766 18.3021 2.48347 18.2066V5.64463ZM12.3347 14.8347L9.06198 18.8678H5.06198L9.42562 13.0165L12.3347 14.8347ZM21.8554 18.8678H11.6074L17.062 12.124L22.5165 16.9835V18.2066C22.5165 18.382 22.4469 18.5501 22.3229 18.6741C22.1989 18.7981 22.0307 18.8678 21.8554 18.8678Z" fill="black" fill-opacity="0.6"/>
</svg>
