<svg width="12" height="12" viewBox="0 0 12 12" fill="none" xmlns="http://www.w3.org/2000/svg">
<path d="M3.12 9.15998C3.12 9.4253 2.90531 9.63998 2.64 9.63998H1.44C0.645936 9.63998 0 8.99404 0 8.19998V3.87998C0 3.08592 0.645936 2.43998 1.44 2.43998H6.28128L5.66066 1.81936C5.47316 1.63186 5.47316 1.32811 5.66066 1.14062C5.84816 0.953132 6.15192 0.95312 6.33941 1.14062L7.77941 2.58062C7.96691 2.76812 7.96691 3.07188 7.77941 3.25936L6.33941 4.69936C6.15285 4.88593 5.84815 4.8878 5.66066 4.69936C5.47316 4.51186 5.47316 4.20811 5.66066 4.02062L6.28128 3.4H1.44C1.17562 3.4 0.96 3.61563 0.96 3.88V8.2C0.96 8.46532 1.17563 8.68001 1.44 8.68001H2.64C2.90532 8.68001 3.12 8.89469 3.12 9.16V9.15998ZM10.56 2.43998H9.36C9.09468 2.43998 8.88 2.65467 8.88 2.91998C8.88 3.18529 9.09469 3.39998 9.36 3.39998H10.56C10.8253 3.39998 11.04 3.61561 11.04 3.87998V8.19998C11.04 8.4653 10.8253 8.67998 10.56 8.67998H5.71872L6.33934 8.05936C6.52684 7.87186 6.52684 7.56811 6.33934 7.38062C6.15184 7.19313 5.84808 7.19312 5.66059 7.38062L4.22059 8.82062C4.03309 9.00812 4.03309 9.31188 4.22059 9.49936L5.66059 10.9394C5.84809 11.1269 6.15185 11.1269 6.33934 10.9394C6.52682 10.7519 6.52684 10.4481 6.33934 10.2606L5.71872 9.64001H10.56C11.3541 9.64001 12 8.99407 12 8.2V3.88C12 3.08594 11.3541 2.44 10.56 2.44V2.43998Z" fill="black" fill-opacity="0.6"/>
</svg>
