<svg width="24" height="24" viewBox="0 0 24 24" fill="none" xmlns="http://www.w3.org/2000/svg">
<path fill-rule="evenodd" clip-rule="evenodd" d="M12 22C17.5228 22 22 17.5228 22 12C22 6.47715 17.5228 2 12 2C6.47715 2 2 6.47715 2 12C2 17.5228 6.47715 22 12 22ZM12 24C18.6274 24 24 18.6274 24 12C24 5.37258 18.6274 0 12 0C5.37258 0 0 5.37258 0 12C0 18.6274 5.37258 24 12 24Z" fill="black" fill-opacity="0.6"/>
<path d="M12 5C11.3528 5 10.8281 5.5247 10.8281 6.17195V10.8281H6.17195C5.5247 10.8281 5 11.3528 5 12C5 12.6472 5.5247 13.1719 6.17195 13.1719H10.8281V17.8281C10.8281 18.4753 11.3528 19 12 19C12.6472 19 13.1719 18.4753 13.1719 17.8281V13.1719H17.8281C18.4753 13.1719 19 12.6472 19 12C19 11.3528 18.4753 10.8281 17.8281 10.8281H13.1719V6.17195C13.1719 5.5247 12.6472 5 12 5Z" fill="black" fill-opacity="0.6"/>
</svg>
