<svg width="13" height="12" viewBox="0 0 13 12" fill="none" xmlns="http://www.w3.org/2000/svg">
<path d="M6.5 0C4.90856 0 3.3824 0.63234 2.2574 1.7574C1.1324 2.88246 0.5 4.40868 0.5 6C0.5 7.59132 1.13234 9.1176 2.2574 10.2426C3.38246 11.3676 4.90868 12 6.5 12C8.09132 12 9.6176 11.3677 10.7426 10.2426C11.8676 9.11754 12.5 7.59132 12.5 6C12.4981 4.40904 11.8653 2.8842 10.7403 1.75968C9.61579 0.63468 8.09096 0.00192 6.5 0V0ZM6.5 11.2626C5.01824 11.2635 3.605 10.6378 2.60936 9.54C2.74717 9.12374 2.90562 8.71453 3.08373 8.31372C3.23654 7.99591 3.46764 7.72216 3.75546 7.51825C4.14968 7.13153 2.91592 6.96325 2.62389 6.67169C2.37873 6.4645 2.11764 6.27653 1.84296 6.10966C1.59499 5.91278 1.44873 6.79591 1.39062 7.25575V7.25528C1.28609 6.84512 1.23218 6.42325 1.22984 5.99996C1.23218 4.92324 1.56594 3.8732 2.1861 2.99252C2.01829 3.51096 1.87203 4.26992 2.52172 4.04346C3.17142 3.81706 3.29563 3.49596 3.29563 3.49596L3.7189 2.76612V2.76659C3.73484 3.16175 3.78359 3.55456 3.86516 3.94175C3.95282 4.08752 4.28142 4.51128 4.41266 3.94175C4.6461 2.85425 4.68266 2.54771 5.08438 2.54771C5.48564 2.54771 6.33922 2.19005 6.39034 3.17537C6.44144 4.16068 6.31019 3.57662 5.77722 3.82506C5.24472 4.07303 5.12799 4.97069 5.60941 5.07282C6.14472 5.22656 6.67113 5.40938 7.18633 5.62032L7.73383 6.23345L7.90164 6.88314C7.90164 6.88314 8.01132 7.61298 8.01132 7.67861V8.35033C8.01132 8.35033 8.01132 9.67129 8.51476 9.35767C9.0182 9.04361 10.3251 6.97831 10.0551 6.19687C9.78508 5.41594 9.76305 5.33578 10.267 5.05828C10.7704 4.78078 11.128 4.44515 11.1065 4.06547V3.46687L11.106 3.46734C12.0004 5.09622 11.9694 7.0767 11.024 8.67702C10.0785 10.2773 8.35866 11.2603 6.5001 11.2627L6.5 11.2626Z" fill="black" fill-opacity="0.6"/>
</svg>
