<svg width="24" height="24" viewBox="0 0 24 24" fill="none" xmlns="http://www.w3.org/2000/svg">
<path d="M24 22C24 22.552 23.552 23 23 23H1C0.448 23 0 22.552 0 22V14C0 13.448 0.448 13 1 13C1.552 13 2 13.448 2 14V21H22V14C22 13.448 22.448 13 23 13C23.552 13 24 13.448 24 14V22Z" fill="black" fill-opacity="0.6"/>
<path d="M12 14.375C12.2486 14.375 12.487 14.2762 12.6628 14.1004C12.8387 13.9246 12.9375 13.6861 12.9375 13.4375V4.1875L16.5 7.75C16.6805 7.8854 16.9038 7.95112 17.1289 7.93512C17.354 7.91912 17.5658 7.82248 17.7253 7.6629C17.8849 7.50333 17.9816 7.29157 17.9976 7.06647C18.0136 6.84136 17.9479 6.61804 17.8125 6.4375L12.6562 1.28125C12.5716 1.19238 12.4697 1.12165 12.3569 1.0733C12.2441 1.02496 12.1227 1 12 1C11.8773 1 11.7559 1.02496 11.6431 1.0733C11.5303 1.12165 11.4284 1.19238 11.3438 1.28125L6.1875 6.4375C6.0521 6.61804 5.98644 6.84136 6.00244 7.06647C6.01844 7.29157 6.11509 7.50333 6.27466 7.6629C6.43423 7.82248 6.64599 7.91912 6.87109 7.93512C7.0962 7.95112 7.31946 7.8854 7.5 7.75L11.0625 4.1875V13.4375C11.0625 13.6861 11.1613 13.9246 11.3372 14.1004C11.513 14.2762 11.7514 14.375 12 14.375Z" fill="black" fill-opacity="0.6"/>
</svg>
